<svg width="20" height="20" viewBox="0 0 20 20" fill="none" xmlns="http://www.w3.org/2000/svg">
<path d="M9.0708 0.833047C9.4145 0.0165876 10.5853 0.0165887 10.929 0.833049L12.9578 5.65194C13.1028 5.99614 13.4304 6.23131 13.8065 6.2611L19.0725 6.67818C19.9648 6.74885 20.3265 7.84884 19.6468 8.4241L15.6347 11.8194C15.3481 12.0619 15.2229 12.4425 15.3104 12.805L16.5362 17.8817C16.7439 18.7418 15.7968 19.4217 15.0329 18.9608L10.5244 16.2403C10.2024 16.0459 9.7974 16.0459 9.4754 16.2403L4.9669 18.9608C4.203 19.4217 3.2558 18.7418 3.4635 17.8817L4.6893 12.805C4.7769 12.4425 4.6517 12.0619 4.3651 11.8194L0.352903 8.4241C-0.326797 7.84884 0.034902 6.74885 0.927202 6.67818L6.1932 6.2611C6.5694 6.23131 6.897 5.99614 7.0419 5.65194L9.0708 0.833047Z" fill="#E48D8B"/>
</svg>
